<?xml version="1.0" standalone="no"?>
<!DOCTYPE svg PUBLIC "-//W3C//DTD SVG 20010904//EN"
 "http://www.w3.org/TR/2001/REC-SVG-20010904/DTD/svg10.dtd">
<svg version="1.0" xmlns="http://www.w3.org/2000/svg"
 width="553.000000pt" height="553.000000pt" viewBox="0 0 553.000000 553.000000"
 preserveAspectRatio="xMidYMid meet">
<metadata>
Created by potrace 1.11, written by Peter Selinger 2001-2013
</metadata>
<g transform="translate(0.000000,553.000000) scale(0.100000,-0.100000)"
fill="#000000" stroke="none">
<path d="M2424 4000 c-3 -3 -9 -5 -12 -6 -4 0 -14 -4 -22 -7 -8 -4 -26 -9 -40
-11 -43 -9 -115 -30 -120 -36 -3 -3 -14 -6 -25 -8 -11 -2 -51 -13 -90 -24 -38
-12 -78 -22 -87 -21 -10 0 -18 -4 -18 -8 0 -5 -9 -9 -20 -9 -20 0 -119 -56
-132 -74 -4 -6 -8 -8 -8 -3 0 4 -18 -4 -40 -18 -22 -14 -44 -25 -50 -25 -5 0
-10 -4 -10 -8 0 -5 -15 -16 -32 -25 -18 -9 -51 -28 -73 -42 -22 -14 -52 -31
-67 -37 -16 -7 -28 -15 -28 -19 0 -4 -13 -12 -30 -19 -16 -7 -27 -16 -24 -21
3 -5 1 -9 -5 -9 -6 0 -23 -12 -39 -27 -16 -16 -62 -57 -102 -93 -165 -147
-184 -166 -175 -186 4 -11 8 -37 10 -59 1 -22 5 -59 9 -82 4 -24 7 -46 6 -49
-1 -4 2 -10 7 -13 4 -3 20 -24 34 -46 45 -68 191 -208 289 -277 88 -63 196
-144 198 -150 2 -4 10 -8 18 -8 8 0 17 -7 20 -15 4 -8 11 -15 16 -15 5 0 29
-16 52 -35 24 -19 48 -35 55 -35 6 0 11 -4 11 -8 0 -5 25 -26 57 -48 31 -21
62 -45 70 -52 7 -7 13 -10 13 -5 0 4 4 3 8 -3 10 -15 160 -124 171 -124 5 0
11 -4 13 -8 2 -4 67 -53 146 -107 230 -161 343 -245 338 -253 -2 -4 3 -13 11
-21 13 -12 15 -12 11 0 -3 8 12 25 36 41 23 16 59 42 81 58 22 17 51 38 65 48
14 9 30 21 35 25 33 27 466 327 472 327 10 0 127 82 131 92 2 4 8 8 14 8 6 0
27 14 48 30 21 17 42 30 47 30 4 0 20 11 35 25 15 14 30 25 33 25 4 0 33 20
65 45 32 25 62 45 65 45 4 0 21 11 39 25 47 38 47 38 101 73 65 41 245 227
245 251 0 5 3 11 8 13 13 6 53 88 47 98 -3 6 -2 10 2 10 11 0 7 73 -6 127 -6
23 -25 70 -42 105 -29 60 -38 69 -175 168 -79 58 -152 110 -161 115 -10 6 -25
18 -34 28 -9 9 -19 17 -22 17 -3 0 -50 32 -103 70 -53 39 -105 70 -115 70 -10
0 -21 5 -24 10 -3 6 -17 10 -31 10 -13 0 -24 4 -24 10 0 5 -3 9 -7 9 -5 -1
-10 0 -13 1 -3 1 -12 3 -20 5 -8 2 -60 19 -115 39 -166 57 -259 77 -390 82
-181 6 -441 15 -523 18 -40 1 -75 -1 -78 -4z"/>
<path d="M2610 1910 c0 -5 5 -10 11 -10 5 0 7 5 4 10 -3 6 -8 10 -11 10 -2 0
-4 -4 -4 -10z"/>
<path d="M2396 1892 c-3 -5 1 -9 9 -9 8 0 12 4 9 9 -3 4 -7 8 -9 8 -2 0 -6 -4
-9 -8z"/>
<path d="M2578 1882 c4 -10 7 -12 10 -4 2 7 9 9 15 5 7 -3 8 -2 4 2 -14 16
-36 14 -29 -3z"/>
<path d="M2656 1889 c4 -8 -1 -9 -17 -4 -13 4 -22 6 -19 4 3 -2 21 -17 40 -34
19 -16 27 -21 17 -9 -10 12 -15 28 -11 38 3 9 1 16 -6 16 -6 0 -8 -5 -4 -11z"/>
<path d="M2684 1891 c4 -5 1 -11 -5 -13 -6 -2 0 -12 13 -23 13 -11 17 -13 11
-5 -7 8 -13 18 -13 23 0 4 6 5 13 1 8 -5 8 -2 -2 9 -14 18 -26 23 -17 8z"/>
<path d="M2810 1888 c0 -5 -6 -8 -13 -5 -17 6 -42 -14 -43 -35 -1 -10 2 -15 7
-12 5 3 9 12 9 20 0 8 5 12 10 9 6 -4 7 -11 4 -17 -4 -7 -2 -8 5 -4 6 4 8 12
5 18 -4 6 -1 8 7 6 8 -3 13 -12 11 -19 -3 -11 -1 -12 10 -1 11 11 10 14 -2 22
-16 10 -12 12 20 12 36 0 41 -2 34 -14 -5 -7 -3 -8 5 -3 8 4 9 11 3 17 -13 13
-72 19 -72 6z"/>
<path d="M2895 1890 c3 -5 8 -10 11 -10 2 0 4 5 4 10 0 6 -5 10 -11 10 -5 0
-7 -4 -4 -10z"/>
<path d="M2622 1854 c10 -10 20 -15 24 -12 3 4 -5 12 -18 18 -22 12 -22 12 -6
-6z"/>
<path d="M2845 1859 c-4 -6 -5 -12 -2 -15 2 -3 7 2 10 11 7 17 1 20 -8 4z"/>
<path d="M2895 1859 c-4 -6 -5 -12 -2 -15 2 -3 7 2 10 11 7 17 1 20 -8 4z"/>
</g>
</svg>
